<svg width="518" height="502" viewBox="0 0 518 502" fill="none" xmlns="http://www.w3.org/2000/svg">
<path d="M-41.786 385.764L-80 429.21L3.05692 502L41.2709 458.554L-41.786 385.764Z" fill="#F8D274" fill-opacity="0.3"/>
<path d="M278.625 -129C146.318 -129 39.2505 -22.1267 39.2505 109.94C39.2505 160.327 54.9255 207.001 81.4931 245.454L-25.5746 367.178L57.5822 439.842L163.587 319.178C197.86 338.007 236.914 348.615 278.625 348.615C410.932 348.615 518 241.742 518 109.675C518 -22.1267 410.667 -129 278.625 -129ZM278.625 216.548C219.645 216.548 171.823 168.813 171.823 109.94C171.823 51.0669 219.645 3.33194 278.625 3.33194C337.605 3.33194 385.427 51.0669 385.427 109.94C385.427 168.813 337.605 216.548 278.625 216.548Z" fill="#F8D274" fill-opacity="0.3"/>
</svg>
