<svg width="25" height="30" viewBox="0 0 25 30" fill="none" xmlns="http://www.w3.org/2000/svg">
<path d="M12.5002 29.0833C14.1043 29.0833 15.4168 27.7708 15.4168 26.1666H9.5835C9.5835 26.9402 9.89079 27.6821 10.4378 28.229C10.9847 28.776 11.7266 29.0833 12.5002 29.0833ZM21.2502 20.3333V13.0416C21.2502 8.56456 18.8585 4.81665 14.6877 3.82498V2.83331C14.6877 1.6229 13.7106 0.645813 12.5002 0.645813C11.2897 0.645813 10.3127 1.6229 10.3127 2.83331V3.82498C6.12725 4.81665 3.75016 8.54998 3.75016 13.0416V20.3333L0.833496 23.25V24.7083H24.1668V23.25L21.2502 20.3333Z" fill="#F8F8F8"/>
</svg>
