<svg width="20" height="20" viewBox="0 0 20 20" fill="none" xmlns="http://www.w3.org/2000/svg">
<path d="M3.09297 11.0524C2.90887 11.1138 2.74158 11.2172 2.60435 11.3544C2.46712 11.4917 2.36373 11.659 2.30235 11.8431L0 18.7501L0.183203 18.9333L3.81173 15.3048C3.78594 15.2048 3.7504 15.1083 3.7504 15.0001C3.7504 14.3099 4.31016 13.7501 5.0004 13.7501C5.69064 13.7501 6.2504 14.3099 6.2504 15.0001C6.2504 15.6903 5.69064 16.2501 5.0004 16.2501C4.8922 16.2501 4.79571 16.2146 4.69571 16.1888L1.06719 19.8173L1.25 20.0001L8.15705 17.6978C8.34119 17.6364 8.50851 17.5331 8.64574 17.3958C8.78298 17.2586 8.88635 17.0913 8.94767 16.9071L10.2395 13.6231L6.37696 9.76063L3.09297 11.0524ZM14.4239 1.10632L7.27111 8.89891L11.0934 12.7212L18.886 5.56844C22.2032 2.63601 17.3332 -2.18509 14.4239 1.10632Z" fill="#2353BB"/>
</svg>
