<svg width="16" height="16" viewBox="0 0 16 16" fill="none" xmlns="http://www.w3.org/2000/svg">
<path d="M10.525 10.525L15.25 15.25L10.525 10.525ZM6.8125 11.875C7.47732 11.875 8.13562 11.7441 8.74983 11.4896C9.36405 11.2352 9.92213 10.8623 10.3922 10.3922C10.8623 9.92213 11.2352 9.36405 11.4896 8.74983C11.7441 8.13562 11.875 7.47732 11.875 6.8125C11.875 6.14768 11.7441 5.48938 11.4896 4.87517C11.2352 4.26095 10.8623 3.70287 10.3922 3.23277C9.92213 2.76268 9.36405 2.38977 8.74983 2.13536C8.13562 1.88095 7.47732 1.75 6.8125 1.75C5.46984 1.75 4.18217 2.28337 3.23277 3.23277C2.28337 4.18217 1.75 5.46984 1.75 6.8125C1.75 8.15516 2.28337 9.44282 3.23277 10.3922C4.18217 11.3416 5.46984 11.875 6.8125 11.875V11.875Z" stroke="#2353BB" stroke-width="2"/>
</svg>
