<svg width="92" height="50" viewBox="0 0 92 50" fill="none" xmlns="http://www.w3.org/2000/svg">
<g clip-path="url(#clip0_113_958)">
<path d="M14.5103 16.4271V23.0907L9.19437 23.5999V16.7565L0 17.3405V12.7658L16.5244 11.7176V5.97483H1.53489V1.40759H21.788V11.3956L23.7047 11.2683V15.8431L14.5103 16.4271Z" fill="#2353BB"/>
<path d="M47.3121 23.5999V13.6942L46.3163 13.8215V22.327L41.7415 23.248V1.27283H46.3163V8.60287L47.3121 8.47558V1.27283H51.9317V22.7014L47.3121 23.5999Z" fill="#2353BB"/>
<path d="M71.451 23.5999V21.8104L66.749 22.2447V18.1342L71.451 17.7224V16.7041L64.8847 17.3705V23.218L59.726 23.9817V17.8796L54.6945 18.3887V13.8664L71.451 12.1818V8.37825L68.6433 11.9796L63.2525 9.80832L57.0979 13.1776L53.9308 9.9356L60.572 5.95237V5.72027H55.7203V1.4076H70.283V5.72775H65.9404V6.01227L71.4585 8.23599V1.27283H76.7221V22.5741L71.451 23.5999Z" fill="#2353BB"/>
<path d="M60.4897 40.0944V39.9147L44.2722 41.472V28.0848H58.7526V31.791H49.5059V33.0189L58.4981 32.4798V35.6469L49.5059 36.2309V37.077L60.4897 36.2833V28.0848H65.7532V39.5553L60.4897 40.0944ZM46.2639 50V42.056L65.7532 40.2142V50H46.2639ZM60.4897 44.6915L51.5199 45.4852V46.204L60.4897 45.5676V44.6915Z" fill="#2353BB"/>
<path d="M81.3043 44.7664V41.3971L85.5196 41.0677V40.3264L79.1554 40.8356V43.516L74.1464 43.8754V41.2474L68.7556 41.6816V37.8257L85.5121 36.4705V28.0847H90.7757V43.9203L81.3043 44.7664ZM76.0482 36.5678C75.0973 36.5678 74.2288 36.4555 73.4426 36.2384C72.6565 36.0138 71.9901 35.7068 71.4361 35.3174C70.882 34.9281 70.4552 34.4489 70.1482 33.8874C69.8413 33.3258 69.6915 32.7044 69.6915 32.023C69.6915 31.3417 69.8488 30.7203 70.1482 30.1587C70.4552 29.5972 70.882 29.118 71.4361 28.7286C71.9901 28.3393 72.6565 28.0323 73.4426 27.8077C74.2288 27.5831 75.0973 27.4783 76.0482 27.4783H78.1447C79.0806 27.4783 79.9416 27.5906 80.7278 27.8077C81.5139 28.0323 82.1803 28.3393 82.7344 28.7286C83.2884 29.118 83.7152 29.5972 84.0222 30.1587C84.3291 30.7203 84.4789 31.3417 84.4789 32.023C84.4789 32.7044 84.3291 33.3258 84.0222 33.8874C83.7152 34.4489 83.2884 34.9281 82.7344 35.3174C82.1803 35.7068 81.5139 36.0138 80.7278 36.2384C79.9416 36.463 79.0806 36.5678 78.1447 36.5678H76.0482ZM71.189 49.8502V44.5343L76.4226 44.2048V46.1216L91.0078 44.9685V49.8502H71.189ZM77.628 33.0638C78.0698 33.0638 78.4516 32.9814 78.7661 32.8092C79.0806 32.637 79.2378 32.3749 79.2378 32.0156C79.2378 31.6936 79.0806 31.439 78.7661 31.2593C78.4516 31.0796 78.0698 30.9898 77.628 30.9898H76.5274C76.0857 30.9898 75.7113 31.0796 75.4043 31.2593C75.0973 31.439 74.9476 31.6861 74.9476 32.0156C74.9476 32.3749 75.0973 32.637 75.4043 32.8092C75.7113 32.9814 76.0857 33.0638 76.5274 33.0638H77.628Z" fill="#2353BB"/>
<path d="M24.73 21.5085L27.0707 23.5635L31.1167 18.9553L28.776 16.9002L24.73 21.5085Z" fill="black"/>
<path d="M23.1973 23.2556L25.538 25.3107L26.6149 24.0841L24.2742 22.029L23.1973 23.2556Z" fill="black"/>
<path d="M37.1369 0H29.1929V4.54477H37.1369V0Z" fill="#2353BB"/>
<path d="M40.581 5.26355H25.7562V9.73345H40.581V5.26355Z" fill="#2353BB"/>
<path d="M33.3034 20.9868C37.0291 20.9868 40.0494 17.9665 40.0494 14.2408C40.0494 10.5151 37.0291 7.49475 33.3034 7.49475C29.5776 7.49475 26.5573 10.5151 26.5573 14.2408C26.5573 17.9665 29.5776 20.9868 33.3034 20.9868Z" fill="black"/>
<path d="M33.3034 17.2507C34.9657 17.2507 36.3133 15.9031 36.3133 14.2408C36.3133 12.5785 34.9657 11.2309 33.3034 11.2309C31.6411 11.2309 30.2935 12.5785 30.2935 14.2408C30.2935 15.9031 31.6411 17.2507 33.3034 17.2507Z" fill="white"/>
</g>
<defs>
<clipPath id="clip0_113_958">
<rect width="91.0153" height="50" fill="white"/>
</clipPath>
</defs>
</svg>
