<svg width="459" height="459" viewBox="0 0 459 459" fill="none" xmlns="http://www.w3.org/2000/svg">
<path d="M229.5 0.78125C103.188 0.78125 0.78125 103.188 0.78125 229.5C0.78125 355.812 103.188 458.219 229.5 458.219C355.812 458.219 458.219 355.812 458.219 229.5C458.219 103.188 355.812 0.78125 229.5 0.78125ZM268.327 322.626C270.03 324.243 271.391 326.185 272.331 328.337C273.272 330.489 273.771 332.808 273.801 335.156C273.831 337.504 273.391 339.834 272.506 342.01C271.622 344.185 270.31 346.161 268.65 347.822C266.989 349.482 265.013 350.794 262.838 351.678C260.662 352.563 258.332 353.003 255.984 352.973C253.636 352.943 251.317 352.443 249.165 351.503C247.013 350.563 245.072 349.202 243.454 347.499L137.892 241.937C134.595 238.637 132.743 234.164 132.743 229.5C132.743 224.836 134.595 220.363 137.892 217.063L243.454 111.501C246.78 108.341 251.21 106.605 255.797 106.664C260.385 106.722 264.768 108.571 268.013 111.815C271.257 115.06 273.106 119.443 273.164 124.031C273.223 128.619 271.487 133.048 268.327 136.374L175.212 229.5L268.327 322.626Z" fill="#F8D274"/>
</svg>
