<svg width="25" height="20" viewBox="0 0 25 20" fill="none" xmlns="http://www.w3.org/2000/svg">
<path fill-rule="evenodd" clip-rule="evenodd" d="M0 10C1.18125 4.295 6.32875 0 12.5 0C18.6712 0 23.8188 4.295 25 10C23.8188 15.705 18.6712 20 12.5 20C6.32875 20 1.18125 15.705 0 10ZM12.5 16.25C14.1576 16.25 15.7473 15.5915 16.9194 14.4194C18.0915 13.2473 18.75 11.6576 18.75 10C18.75 8.3424 18.0915 6.75269 16.9194 5.58058C15.7473 4.40848 14.1576 3.75 12.5 3.75C10.8424 3.75 9.25268 4.40848 8.08058 5.58058C6.90848 6.75269 6.25 8.3424 6.25 10C6.25 11.6576 6.90848 13.2473 8.08058 14.4194C9.25268 15.5915 10.8424 16.25 12.5 16.25ZM12.5 13.75C13.4946 13.75 14.4484 13.3549 15.1517 12.6517C15.8549 11.9484 16.25 10.9946 16.25 10C16.25 9.00544 15.8549 8.05161 15.1517 7.34835C14.4484 6.64509 13.4946 6.25 12.5 6.25C11.5054 6.25 10.5516 6.64509 9.84835 7.34835C9.14509 8.05161 8.75 9.00544 8.75 10C8.75 10.9946 9.14509 11.9484 9.84835 12.6517C10.5516 13.3549 11.5054 13.75 12.5 13.75Z" fill="#9D9D9D"/>
</svg>
